<?xml version="1.0" encoding="UTF-8"?>
<svg xmlns="http://www.w3.org/2000/svg" xmlns:xlink="http://www.w3.org/1999/xlink" width="89px" height="27px" viewBox="0 0 27 27" version="1.1">
<g id="surface1">
<path style=" stroke:none;fill-rule:evenodd;fill:rgb(51.372549%,78.431373%,39.215686%);fill-opacity:1;" d="M 5.195312 10.785156 L 5.828125 10.804688 L 5.84375 11.597656 L 5.863281 12.394531 L 5.886719 10.746094 L 5.222656 10.757812 L 4.5625 10.769531 L 5.195312 10.785156 M 14.023438 10.78125 C 14.003906 10.800781 13.984375 10.960938 13.984375 11.136719 C 13.984375 11.410156 14 11.460938 14.09375 11.484375 C 14.195312 11.511719 14.199219 11.570312 14.214844 12.789062 L 14.230469 14.066406 L 14.242188 12.757812 C 14.253906 11.480469 14.253906 11.449219 14.148438 11.449219 C 14.050781 11.449219 14.039062 11.410156 14.039062 11.125 L 14.039062 10.800781 L 15.28125 10.800781 L 15.28125 11.613281 C 15.28125 12.058594 15.300781 12.414062 15.324219 12.402344 C 15.34375 12.386719 15.355469 12.007812 15.347656 11.5625 L 15.332031 10.746094 L 14.695312 10.746094 C 14.34375 10.746094 14.042969 10.761719 14.023438 10.78125 M 20.433594 10.820312 C 20.417969 10.859375 20.414062 11.023438 20.421875 11.183594 C 20.4375 11.429688 20.457031 11.476562 20.546875 11.480469 C 20.628906 11.484375 20.632812 11.480469 20.558594 11.464844 C 20.484375 11.445312 20.464844 11.378906 20.464844 11.121094 L 20.464844 10.800781 L 21.703125 10.800781 L 21.722656 11.570312 L 21.738281 12.339844 L 21.761719 10.746094 L 21.113281 10.746094 C 20.613281 10.746094 20.457031 10.761719 20.433594 10.820312 M 8.199219 10.910156 L 8.074219 11.023438 L 8.234375 10.925781 C 8.449219 10.800781 8.453125 10.800781 8.386719 10.800781 C 8.355469 10.800781 8.269531 10.851562 8.199219 10.910156 M 11.242188 11.972656 C 11.320312 11.992188 11.339844 12.074219 11.351562 12.425781 C 11.367188 12.808594 11.375 12.839844 11.4375 12.738281 C 11.476562 12.675781 11.484375 12.640625 11.453125 12.660156 C 11.414062 12.683594 11.394531 12.574219 11.394531 12.316406 C 11.394531 11.953125 11.386719 11.933594 11.273438 11.941406 C 11.183594 11.945312 11.175781 11.953125 11.242188 11.972656 M 6.601562 12.027344 C 6.683594 12.039062 6.804688 12.039062 6.871094 12.027344 C 6.9375 12.011719 6.871094 12.003906 6.722656 12.003906 C 6.574219 12.003906 6.519531 12.015625 6.601562 12.027344 M 16.050781 12.027344 C 16.132812 12.039062 16.253906 12.039062 16.320312 12.027344 C 16.390625 12.011719 16.320312 12.003906 16.171875 12.003906 C 16.023438 12.003906 15.96875 12.015625 16.050781 12.027344 M 6.09375 12.207031 L 5.96875 12.320312 L 6.128906 12.222656 C 6.34375 12.097656 6.34375 12.097656 6.277344 12.097656 C 6.246094 12.097656 6.164062 12.144531 6.09375 12.207031 M 7.847656 12.445312 C 7.847656 12.65625 7.859375 12.734375 7.871094 12.621094 C 7.882812 12.507812 7.882812 12.339844 7.867188 12.242188 C 7.855469 12.148438 7.847656 12.238281 7.847656 12.445312 M 9.09375 13.066406 C 9.09375 13.617188 9.101562 13.84375 9.113281 13.566406 C 9.121094 13.292969 9.121094 12.84375 9.113281 12.570312 C 9.101562 12.292969 9.09375 12.519531 9.09375 13.066406 M 17.242188 12.445312 C 17.242188 12.65625 17.253906 12.734375 17.265625 12.621094 C 17.277344 12.507812 17.277344 12.339844 17.265625 12.242188 C 17.253906 12.148438 17.242188 12.238281 17.242188 12.445312 M 20.164062 13.066406 C 20.164062 13.617188 20.171875 13.84375 20.183594 13.566406 C 20.191406 13.292969 20.191406 12.84375 20.183594 12.570312 C 20.171875 12.292969 20.164062 12.519531 20.164062 13.066406 M 18.542969 12.960938 C 18.542969 13.421875 18.550781 13.609375 18.5625 13.378906 C 18.574219 13.148438 18.574219 12.773438 18.5625 12.542969 C 18.550781 12.3125 18.542969 12.5 18.542969 12.960938 M 11.632812 12.433594 L 11.476562 12.609375 L 11.652344 12.449219 C 11.8125 12.300781 11.851562 12.257812 11.808594 12.257812 C 11.800781 12.257812 11.722656 12.335938 11.632812 12.433594 M 13.554688 12.273438 C 13.554688 12.285156 13.632812 12.363281 13.730469 12.449219 L 13.90625 12.609375 L 13.746094 12.433594 C 13.597656 12.269531 13.554688 12.234375 13.554688 12.273438 M 8.066406 13.417969 C 8.066406 13.777344 8.074219 13.914062 8.085938 13.726562 C 8.097656 13.539062 8.097656 13.25 8.085938 13.078125 C 8.074219 12.910156 8.066406 13.0625 8.066406 13.417969 M 17.460938 13.339844 C 17.460938 13.648438 17.472656 13.777344 17.480469 13.621094 C 17.492188 13.464844 17.492188 13.210938 17.480469 13.054688 C 17.472656 12.898438 17.460938 13.027344 17.460938 13.339844 M 19.136719 13.257812 C 19.136719 13.523438 19.144531 13.640625 19.15625 13.515625 C 19.167969 13.390625 19.167969 13.171875 19.15625 13.027344 C 19.144531 12.886719 19.136719 12.988281 19.136719 13.257812 M 11.152344 12.945312 C 11.210938 12.960938 11.277344 13 11.296875 13.035156 C 11.324219 13.074219 11.339844 13.058594 11.339844 13 C 11.339844 12.933594 11.300781 12.90625 11.191406 12.914062 C 11.078125 12.917969 11.066406 12.925781 11.152344 12.945312 M 13.066406 13.039062 C 13.066406 13.148438 12.390625 13.160156 12.347656 13.054688 C 12.332031 13.015625 12.320312 13.023438 12.316406 13.082031 C 12.3125 13.164062 12.367188 13.175781 12.71875 13.175781 C 13.085938 13.175781 13.121094 13.167969 13.121094 13.066406 C 13.121094 13.007812 13.109375 12.960938 13.09375 12.960938 C 13.082031 12.960938 13.066406 12.996094 13.066406 13.039062 M 23.609375 13.230469 C 23.609375 13.332031 23.621094 13.375 23.636719 13.324219 C 23.648438 13.273438 23.648438 13.1875 23.636719 13.136719 C 23.621094 13.082031 23.609375 13.125 23.609375 13.230469 M 6.5 13.933594 C 6.5 14.390625 6.511719 14.582031 6.519531 14.351562 C 6.53125 14.121094 6.53125 13.742188 6.519531 13.511719 C 6.511719 13.285156 6.5 13.472656 6.5 13.933594 M 15.300781 13.582031 C 15.300781 13.847656 15.308594 13.964844 15.320312 13.839844 C 15.332031 13.714844 15.332031 13.496094 15.320312 13.351562 C 15.3125 13.210938 15.300781 13.3125 15.300781 13.582031 M 21.722656 13.417969 C 21.722656 13.566406 21.734375 13.621094 21.746094 13.539062 C 21.757812 13.457031 21.757812 13.335938 21.746094 13.269531 C 21.734375 13.203125 21.722656 13.269531 21.722656 13.417969 M 11.246094 13.390625 C 11.246094 13.496094 11.253906 13.539062 11.269531 13.488281 C 11.28125 13.433594 11.28125 13.347656 11.269531 13.296875 C 11.253906 13.246094 11.246094 13.289062 11.246094 13.390625 M 5.851562 13.660156 C 5.851562 13.882812 5.859375 13.976562 5.871094 13.863281 C 5.882812 13.753906 5.882812 13.570312 5.871094 13.460938 C 5.859375 13.347656 5.851562 13.4375 5.851562 13.660156 M 23.996094 13.554688 C 23.777344 13.640625 23.652344 13.871094 23.652344 14.179688 C 23.652344 14.425781 23.675781 14.5 23.808594 14.648438 C 23.953125 14.808594 23.992188 14.824219 24.292969 14.824219 C 24.589844 14.824219 24.636719 14.808594 24.796875 14.648438 C 24.953125 14.492188 24.972656 14.441406 24.972656 14.171875 C 24.972656 13.886719 24.957031 13.851562 24.769531 13.683594 C 24.605469 13.53125 24.53125 13.5 24.339844 13.503906 C 24.214844 13.503906 24.058594 13.527344 23.996094 13.554688 M 12.734375 13.703125 C 12.980469 13.710938 13.367188 13.710938 13.597656 13.703125 C 13.824219 13.691406 13.625 13.683594 13.148438 13.683594 C 12.671875 13.683594 12.488281 13.691406 12.734375 13.703125 M 6.226562 14.390625 C 6.226562 14.597656 6.238281 14.675781 6.25 14.566406 C 6.261719 14.453125 6.261719 14.28125 6.25 14.1875 C 6.238281 14.089844 6.226562 14.183594 6.226562 14.390625 M 10.871094 14.390625 C 10.871094 14.597656 10.882812 14.675781 10.894531 14.566406 C 10.90625 14.453125 10.90625 14.28125 10.894531 14.1875 C 10.882812 14.089844 10.871094 14.183594 10.871094 14.390625 M 13.984375 14.15625 C 13.984375 14.253906 13.976562 14.261719 13.890625 14.195312 C 13.8125 14.136719 13.816406 14.144531 13.898438 14.242188 C 13.988281 14.347656 13.992188 14.375 13.925781 14.453125 C 13.882812 14.503906 13.878906 14.53125 13.914062 14.507812 C 13.957031 14.484375 13.988281 14.523438 14 14.621094 C 14.011719 14.703125 14.027344 14.605469 14.03125 14.40625 C 14.035156 14.203125 14.027344 14.039062 14.011719 14.039062 C 14 14.039062 13.984375 14.089844 13.984375 14.15625 M 15.675781 14.390625 C 15.679688 14.597656 15.6875 14.675781 15.699219 14.566406 C 15.710938 14.453125 15.710938 14.28125 15.699219 14.1875 C 15.6875 14.089844 15.675781 14.183594 15.675781 14.390625 M 17.296875 14.390625 C 17.296875 14.597656 17.308594 14.675781 17.320312 14.566406 C 17.332031 14.453125 17.332031 14.28125 17.320312 14.1875 C 17.308594 14.089844 17.296875 14.183594 17.296875 14.390625 M 20.429688 14.390625 C 20.429688 14.597656 20.441406 14.675781 20.453125 14.566406 C 20.464844 14.453125 20.464844 14.28125 20.449219 14.1875 C 20.4375 14.089844 20.429688 14.183594 20.429688 14.390625 M 12.867188 14.832031 C 12.917969 14.847656 13.003906 14.847656 13.054688 14.832031 C 13.105469 14.820312 13.0625 14.808594 12.960938 14.808594 C 12.855469 14.808594 12.8125 14.820312 12.867188 14.832031 M 18.425781 14.832031 C 18.480469 14.847656 18.566406 14.847656 18.617188 14.832031 C 18.667969 14.820312 18.625 14.808594 18.523438 14.808594 C 18.417969 14.808594 18.375 14.820312 18.425781 14.832031 "/>
<path style=" stroke:none;fill-rule:evenodd;fill:rgb(1.960784%,1.960784%,1.960784%);fill-opacity:1;" d="M 4.589844 11.125 C 4.589844 11.410156 4.601562 11.449219 4.699219 11.449219 C 4.804688 11.449219 4.804688 11.484375 4.804688 12.742188 C 4.804688 14.003906 4.804688 14.039062 4.699219 14.039062 C 4.601562 14.039062 4.589844 14.074219 4.589844 14.390625 L 4.589844 14.742188 L 6.210938 14.742188 L 6.210938 14.039062 L 5.816406 14.039062 L 5.84375 13.5625 C 5.859375 13.300781 5.898438 13.035156 5.933594 12.972656 C 6.03125 12.792969 6.25 12.757812 6.390625 12.898438 C 6.5 13.007812 6.507812 13.078125 6.523438 13.878906 L 6.542969 14.742188 L 9.34375 14.742188 L 9.34375 14.390625 C 9.34375 14.050781 9.335938 14.039062 9.207031 14.039062 L 9.070312 14.039062 L 9.070312 12.097656 L 7.882812 12.097656 L 7.882812 12.445312 C 7.882812 12.761719 7.894531 12.796875 7.992188 12.796875 C 8.09375 12.796875 8.101562 12.835938 8.101562 13.414062 C 8.101562 14.007812 8.097656 14.027344 7.976562 14.046875 C 7.910156 14.058594 7.804688 14.0625 7.742188 14.050781 C 7.628906 14.035156 7.625 14 7.605469 13.347656 C 7.589844 12.824219 7.5625 12.617188 7.484375 12.460938 C 7.265625 12.015625 6.703125 11.90625 6.175781 12.203125 C 6.015625 12.292969 5.875 12.367188 5.859375 12.367188 C 5.84375 12.367188 5.832031 12.011719 5.832031 11.582031 L 5.832031 10.800781 L 4.589844 10.800781 L 4.589844 11.125 M 8.304688 10.882812 C 7.839844 11.140625 8.035156 11.839844 8.574219 11.839844 C 8.851562 11.839844 9.011719 11.746094 9.105469 11.523438 C 9.167969 11.367188 9.171875 11.3125 9.109375 11.164062 C 9.066406 11.066406 8.996094 10.957031 8.949219 10.917969 C 8.8125 10.804688 8.472656 10.785156 8.304688 10.882812 M 14.039062 11.125 C 14.039062 11.410156 14.050781 11.449219 14.148438 11.449219 C 14.253906 11.449219 14.257812 11.484375 14.257812 12.742188 C 14.257812 14.003906 14.253906 14.039062 14.148438 14.039062 C 14.050781 14.039062 14.039062 14.074219 14.039062 14.390625 L 14.039062 14.742188 L 15.660156 14.742188 L 15.660156 14.039062 L 15.28125 14.039062 L 15.28125 13.613281 C 15.28125 13.109375 15.339844 12.925781 15.523438 12.84375 C 15.628906 12.792969 15.683594 12.800781 15.792969 12.871094 L 15.929688 12.960938 L 15.929688 14.742188 L 17.28125 14.742188 L 17.28125 14.390625 C 17.28125 14.082031 17.265625 14.039062 17.179688 14.039062 C 17.085938 14.039062 17.074219 13.980469 17.054688 13.378906 C 17.019531 12.339844 16.816406 12.042969 16.128906 12.042969 C 15.882812 12.042969 15.789062 12.070312 15.558594 12.226562 L 15.28125 12.414062 L 15.28125 10.800781 L 14.039062 10.800781 L 14.039062 11.125 M 20.464844 11.125 C 20.464844 11.410156 20.476562 11.449219 20.574219 11.449219 C 20.679688 11.449219 20.683594 11.484375 20.683594 12.742188 C 20.683594 14.003906 20.679688 14.039062 20.574219 14.039062 C 20.476562 14.039062 20.464844 14.074219 20.464844 14.390625 L 20.464844 14.742188 L 21.054688 14.742188 C 21.523438 14.742188 21.648438 14.726562 21.671875 14.664062 C 21.699219 14.59375 21.738281 14.597656 21.933594 14.6875 C 22.527344 14.957031 23.203125 14.703125 23.476562 14.109375 C 23.644531 13.734375 23.660156 13.140625 23.503906 12.789062 C 23.390625 12.539062 23.082031 12.230469 22.847656 12.140625 C 22.613281 12.054688 22.152344 12.078125 21.921875 12.195312 L 21.707031 12.296875 L 21.707031 10.800781 L 20.464844 10.800781 L 20.464844 11.125 M 10.929688 12.066406 C 10.839844 12.105469 10.714844 12.207031 10.652344 12.289062 L 10.542969 12.441406 L 10.453125 12.269531 L 10.367188 12.097656 L 9.394531 12.097656 L 9.394531 12.445312 C 9.394531 12.761719 9.40625 12.796875 9.503906 12.796875 C 9.605469 12.796875 9.613281 12.835938 9.613281 13.417969 C 9.613281 14.003906 9.605469 14.039062 9.503906 14.039062 C 9.40625 14.039062 9.394531 14.074219 9.394531 14.390625 L 9.394531 14.742188 L 10.855469 14.742188 L 10.855469 14.390625 C 10.855469 14.074219 10.84375 14.039062 10.746094 14.039062 C 10.648438 14.039062 10.636719 14.003906 10.636719 13.660156 C 10.636719 13.207031 10.691406 13.085938 10.9375 12.980469 C 11.296875 12.832031 11.328125 12.859375 11.300781 13.277344 C 11.222656 14.320312 11.941406 14.949219 13.035156 14.792969 C 13.378906 14.746094 13.882812 14.539062 13.960938 14.417969 C 13.980469 14.386719 13.90625 14.25 13.796875 14.117188 C 13.605469 13.882812 13.59375 13.875 13.472656 13.957031 C 13.121094 14.1875 12.566406 14.164062 12.394531 13.914062 C 12.222656 13.671875 12.257812 13.660156 13.148438 13.660156 L 13.984375 13.660156 L 13.996094 13.488281 C 14.023438 13 13.957031 12.722656 13.757812 12.496094 C 13.53125 12.234375 13.214844 12.085938 12.828125 12.054688 C 12.257812 12.011719 11.851562 12.1875 11.519531 12.628906 L 11.339844 12.859375 L 11.339844 12.425781 C 11.339844 12.007812 11.335938 11.988281 11.21875 11.988281 C 11.152344 11.992188 11.023438 12.023438 10.929688 12.066406 M 17.28125 12.445312 C 17.28125 12.753906 17.292969 12.796875 17.382812 12.796875 C 17.476562 12.796875 17.488281 12.851562 17.503906 13.488281 C 17.527344 14.246094 17.585938 14.429688 17.871094 14.632812 C 18.050781 14.761719 18.46875 14.828125 18.757812 14.773438 C 18.859375 14.753906 19.023438 14.664062 19.121094 14.578125 C 19.214844 14.488281 19.296875 14.421875 19.300781 14.429688 C 19.304688 14.4375 19.339844 14.511719 19.375 14.59375 C 19.4375 14.738281 19.445312 14.742188 19.925781 14.742188 L 20.410156 14.742188 L 20.410156 14.390625 C 20.410156 14.050781 20.40625 14.039062 20.277344 14.039062 L 20.140625 14.039062 L 20.140625 12.097656 L 18.792969 12.097656 L 18.792969 12.796875 L 19.179688 12.796875 L 19.160156 13.304688 C 19.140625 13.878906 19.050781 14.058594 18.796875 14.027344 C 18.566406 14.003906 18.523438 13.824219 18.523438 12.917969 L 18.523438 12.097656 L 17.28125 12.097656 L 17.28125 12.445312 M 12.425781 12.886719 C 12.226562 13.136719 12.269531 13.175781 12.71875 13.175781 C 13.085938 13.175781 13.121094 13.167969 13.121094 13.066406 C 13.121094 12.753906 12.628906 12.625 12.425781 12.886719 M 21.878906 12.921875 C 21.734375 13.074219 21.683594 13.316406 21.730469 13.625 C 21.832031 14.304688 22.464844 14.21875 22.464844 13.527344 C 22.464844 12.910156 22.175781 12.609375 21.878906 12.921875 "/>
</g>
</svg>
