<svg xmlns="http://www.w3.org/2000/svg" width="500" height="500" viewBox="0 0 500 500" version="1.1"><path d="M 91.250 199.747 L 103 200.063 103 215.091 C 103 223.356, 103.338 229.910, 103.750 229.657 C 104.162 229.403, 104.365 222.401, 104.200 214.098 L 103.900 199 91.700 199.215 L 79.500 199.430 91.250 199.747 M 254 206 C 254 212.312, 254.195 213, 255.982 213 C 257.894 213, 257.974 213.836, 258.251 236.750 L 258.538 260.500 258.769 236.250 C 258.994 212.590, 258.951 212, 257 212 C 255.222 212, 255 211.333, 255 206 L 255 200 266.474 200 L 277.948 200 278.224 215.156 C 278.473 228.808, 278.649 230.129, 280 228.464 C 280.862 227.402, 280.968 226.936, 280.250 227.367 C 279.273 227.954, 279 224.940, 279 213.559 L 279 199 266.500 199 L 254 199 254 206 M 373.412 200.369 C 373.123 201.122, 373.024 204.160, 373.193 207.119 C 373.454 211.691, 373.801 212.515, 375.500 212.598 C 377.022 212.673, 377.082 212.597, 375.750 212.279 C 374.327 211.939, 374 210.753, 374 205.930 L 374 200 385.473 200 L 396.945 200 397.223 213.906 L 397.500 227.813 401 225.845 C 404.156 224.070, 403.539 223.972, 399.500 225.607 C 398.210 226.129, 398 224.305, 398 212.607 L 398 199 385.969 199 C 376.707 199, 373.816 199.315, 373.412 200.369 M 146.861 202.059 L 144.500 204.119 147.500 202.362 C 151.448 200.050, 151.507 200, 150.277 200 C 149.697 200, 148.159 200.927, 146.861 202.059 M 157.083 200.303 C 157.313 200.469, 158.850 201.396, 160.500 202.362 L 163.500 204.119 161.139 202.059 C 159.841 200.927, 158.303 200, 157.723 200 C 157.142 200, 156.854 200.136, 157.083 200.303 M 164.232 210 C 164.232 211.925, 164.438 212.713, 164.689 211.750 C 164.941 210.787, 164.941 209.213, 164.689 208.250 C 164.438 207.287, 164.232 208.075, 164.232 210 M 144 213.889 C 144 214.838, 148.886 219.497, 149.277 218.921 C 149.434 218.689, 148.311 217.291, 146.781 215.814 C 145.251 214.336, 144 213.470, 144 213.889 M 152.762 219.707 C 154.006 219.946, 155.806 219.937, 156.762 219.687 C 157.718 219.437, 156.700 219.241, 154.500 219.252 C 152.300 219.263, 151.518 219.468, 152.762 219.707 M 203.250 221.689 C 204.720 222.073, 205 223.344, 205 229.632 C 205 233.749, 205.338 236.911, 205.750 236.658 C 206.162 236.404, 206.352 232.778, 206.171 228.599 C 205.865 221.526, 205.692 221.008, 203.671 221.116 C 201.980 221.206, 201.887 221.333, 203.250 221.689 M 117.264 222.718 C 118.784 222.947, 121.034 222.941, 122.264 222.704 C 123.494 222.467, 122.250 222.279, 119.500 222.286 C 116.750 222.294, 115.744 222.488, 117.264 222.718 M 292.264 222.718 C 293.784 222.947, 296.034 222.941, 297.264 222.704 C 298.494 222.467, 297.250 222.279, 294.500 222.286 C 291.750 222.294, 290.744 222.488, 292.264 222.718 M 377.419 241 C 377.419 251.725, 377.566 256.113, 377.746 250.750 C 377.925 245.387, 377.925 236.613, 377.746 231.250 C 377.566 225.887, 377.419 230.275, 377.419 241 M 109.250 224.989 C 104.735 227.742, 105.157 228.415, 109.750 225.786 C 114.370 223.141, 114.556 222.999, 113.417 223.004 C 112.912 223.006, 111.037 223.899, 109.250 224.989 M 408.264 223.718 C 409.784 223.947, 412.034 223.941, 413.264 223.704 C 414.494 223.467, 413.250 223.279, 410.500 223.286 C 407.750 223.294, 406.744 223.488, 408.264 223.718 M 140.328 230.500 C 140.333 234.350, 140.513 235.802, 140.730 233.728 C 140.946 231.653, 140.943 228.503, 140.722 226.728 C 140.501 224.952, 140.324 226.650, 140.328 230.500 M 163.415 242 C 163.415 252.175, 163.564 256.337, 163.745 251.250 C 163.927 246.162, 163.927 237.837, 163.745 232.750 C 163.564 227.662, 163.415 231.825, 163.415 242 M 314.328 230.500 C 314.333 234.350, 314.513 235.802, 314.730 233.728 C 314.946 231.653, 314.943 228.503, 314.722 226.728 C 314.501 224.952, 314.324 226.650, 314.328 230.500 M 338.405 239.500 C 338.406 248.300, 338.559 251.766, 338.745 247.203 C 338.930 242.639, 338.929 235.439, 338.742 231.203 C 338.555 226.966, 338.404 230.700, 338.405 239.500 M 368.415 242 C 368.415 252.175, 368.564 256.337, 368.745 251.250 C 368.927 246.162, 368.927 237.837, 368.745 232.750 C 368.564 227.662, 368.415 231.825, 368.415 242 M 213.861 227.059 L 211.500 229.119 214.500 227.362 C 218.448 225.050, 218.507 225, 217.277 225 C 216.697 225, 215.159 225.927, 213.861 227.059 M 144.382 248.500 C 144.384 255.100, 144.546 257.670, 144.741 254.211 C 144.937 250.752, 144.936 245.352, 144.738 242.211 C 144.540 239.070, 144.380 241.900, 144.382 248.500 M 280.655 238.829 C 279.745 239.835, 279 241.060, 279 241.551 C 279 242.043, 279.701 241.445, 280.557 240.223 C 281.426 238.982, 283.167 238, 284.500 238 C 285.833 238, 287.574 238.982, 288.443 240.223 C 289.299 241.445, 290 241.965, 290 241.377 C 290 239.677, 286.530 237, 284.326 237 C 283.217 237, 281.565 237.823, 280.655 238.829 M 318.370 247 C 318.370 252.775, 318.535 255.137, 318.737 252.250 C 318.939 249.363, 318.939 244.637, 318.737 241.750 C 318.535 238.863, 318.370 241.225, 318.370 247 M 349.355 245.500 C 349.352 250.450, 349.521 252.601, 349.731 250.280 C 349.940 247.959, 349.943 243.909, 349.736 241.280 C 349.530 238.651, 349.358 240.550, 349.355 245.500 M 201.500 239.732 C 202.600 240.007, 203.831 240.742, 204.235 241.366 C 204.701 242.086, 204.975 241.861, 204.985 240.750 C 204.996 239.476, 204.252 239.032, 202.250 239.116 C 200.142 239.205, 199.967 239.349, 201.500 239.732 M 237 241.956 C 237 242.482, 233.738 243.068, 229.750 243.257 L 222.500 243.603 230.250 243.801 C 236.561 243.963, 238 243.721, 238 242.500 C 238 241.675, 237.775 241, 237.500 241 C 237.225 241, 237 241.430, 237 241.956 M 254.286 245.500 C 254.294 248.250, 254.488 249.256, 254.718 247.736 C 254.947 246.216, 254.941 243.966, 254.704 242.736 C 254.467 241.506, 254.279 242.750, 254.286 245.500 M 432.232 245 C 432.232 246.925, 432.438 247.713, 432.689 246.750 C 432.941 245.787, 432.941 244.213, 432.689 243.250 C 432.438 242.287, 432.232 243.075, 432.232 245 M 115.402 258 C 115.402 266.525, 115.556 270.012, 115.743 265.750 C 115.931 261.488, 115.931 254.512, 115.743 250.250 C 115.556 245.988, 115.402 249.475, 115.402 258 M 203.300 248 C 203.300 251.025, 203.487 252.262, 203.716 250.750 C 203.945 249.238, 203.945 246.762, 203.716 245.250 C 203.487 243.738, 203.300 244.975, 203.300 248 M 278.355 251.500 C 278.352 256.450, 278.521 258.601, 278.731 256.280 C 278.940 253.959, 278.943 249.909, 278.736 247.280 C 278.530 244.651, 278.358 246.550, 278.355 251.500 M 397.300 249 C 397.300 252.025, 397.487 253.262, 397.716 251.750 C 397.945 250.238, 397.945 247.762, 397.716 246.250 C 397.487 244.738, 397.300 245.975, 397.300 249 M 103.343 252.500 C 103.346 256.900, 103.522 258.576, 103.733 256.224 C 103.945 253.872, 103.942 250.272, 103.727 248.224 C 103.512 246.176, 103.339 248.100, 103.343 252.500 M 290.392 260 C 290.392 267.425, 290.549 270.462, 290.742 266.750 C 290.934 263.038, 290.934 256.962, 290.742 253.250 C 290.549 249.537, 290.392 252.575, 290.392 260 M 432.232 252 C 432.232 253.925, 432.438 254.713, 432.689 253.750 C 432.941 252.787, 432.941 251.213, 432.689 250.250 C 432.438 249.287, 432.232 250.075, 432.232 252 M 441.400 253.400 C 438.345 256.455, 438 257.367, 438 262.384 C 438 267.141, 438.432 268.452, 440.918 271.234 C 443.599 274.235, 444.323 274.500, 449.837 274.500 C 454.823 274.500, 456.278 274.087, 458.436 272.060 C 464.208 266.638, 463.941 257.653, 457.857 252.533 C 455.510 250.558, 453.740 250, 449.823 250 C 445.444 250, 444.364 250.436, 441.400 253.400 M 238 253 L 222.500 253.579 238.250 253.790 C 248.224 253.923, 254 253.633, 254 253 C 254 252.450, 253.887 252.095, 253.750 252.210 C 253.613 252.326, 246.525 252.681, 238 253 M 398.030 255.527 C 397.983 257.115, 400.977 261, 402.248 261 C 402.872 261, 402.677 260.438, 401.815 259.750 C 400.954 259.063, 399.756 257.600, 399.155 256.500 C 398.553 255.400, 398.047 254.962, 398.030 255.527 M 250.582 262.002 C 252.574 264.264, 253.734 266.719, 253.863 268.948 C 254.232 275.339, 255.001 273.394, 254.864 266.417 C 254.789 262.613, 254.526 260.561, 254.280 261.857 L 253.833 264.214 250.666 261.359 L 247.500 258.504 250.582 262.002 M 110.328 266.500 C 110.333 270.350, 110.513 271.802, 110.730 269.728 C 110.946 267.653, 110.943 264.503, 110.722 262.728 C 110.501 260.952, 110.324 262.650, 110.328 266.500 M 196.328 266.500 C 196.333 270.350, 196.513 271.802, 196.730 269.728 C 196.946 267.653, 196.943 264.503, 196.722 262.728 C 196.501 260.952, 196.324 262.650, 196.328 266.500 M 285.328 266.500 C 285.333 270.350, 285.513 271.802, 285.730 269.728 C 285.946 267.653, 285.943 264.503, 285.722 262.728 C 285.501 260.952, 285.324 262.650, 285.328 266.500 M 315.328 266.500 C 315.333 270.350, 315.513 271.802, 315.730 269.728 C 315.946 267.653, 315.943 264.503, 315.722 262.728 C 315.501 260.952, 315.324 262.650, 315.328 266.500 M 373.328 266.500 C 373.333 270.350, 373.513 271.802, 373.730 269.728 C 373.946 267.653, 373.943 264.503, 373.722 262.728 C 373.501 260.952, 373.324 262.650, 373.328 266.500 M 168.310 266.500 C 168.315 269.800, 168.502 271.029, 168.725 269.232 C 168.947 267.435, 168.943 264.735, 168.715 263.232 C 168.486 261.729, 168.304 263.200, 168.310 266.500 M 231.250 261.689 C 232.213 261.941, 233.787 261.941, 234.750 261.689 C 235.713 261.438, 234.925 261.232, 233 261.232 C 231.075 261.232, 230.287 261.438, 231.250 261.689 M 214.861 270.941 C 216.159 272.073, 217.697 273, 218.277 273 C 219.507 273, 219.448 272.950, 215.500 270.638 L 212.500 268.881 214.861 270.941 M 345.500 272.068 C 343.850 273.125, 343.013 273.992, 343.639 273.995 C 344.266 273.998, 345.841 273.115, 347.139 272.033 C 350.112 269.556, 349.397 269.572, 345.500 272.068 M 226.776 274.733 C 229.128 274.945, 232.728 274.942, 234.776 274.727 C 236.824 274.512, 234.900 274.339, 230.500 274.343 C 226.100 274.346, 224.424 274.522, 226.776 274.733 M 335.762 274.707 C 337.006 274.946, 338.806 274.937, 339.762 274.687 C 340.718 274.437, 339.700 274.241, 337.500 274.252 C 335.300 274.263, 334.518 274.468, 335.762 274.707" stroke="none" fill="#7ece5a" fill-rule="evenodd"/><path d="M 80 206 C 80 211.333, 80.222 212, 82 212 C 83.944 212, 84 212.667, 84 236 C 84 259.333, 83.944 260, 82 260 C 80.205 260, 80 260.667, 80 266.500 L 80 273 95 273 L 110 273 110 266.500 L 110 260 106.500 260 L 103 260 103.006 253.250 C 103.016 241.235, 105.828 235.987, 111.493 237.409 C 115.035 238.298, 116 242.846, 116 258.649 L 116 273 142 273 L 168 273 168 266.500 C 168 260.233, 167.910 260, 165.500 260 L 163 260 163 242 L 163 224 152 224 L 141 224 141 230.500 C 141 236.333, 141.205 237, 143 237 C 144.883 237, 145 237.667, 145 248.383 C 145 259.408, 144.929 259.779, 142.750 260.152 C 141.512 260.364, 139.540 260.393, 138.367 260.215 C 136.344 259.908, 136.211 259.233, 135.813 247.196 C 135.497 237.675, 134.941 233.566, 133.590 230.766 C 129.471 222.232, 118.757 220.366, 108.691 226.427 L 103 229.854 103 214.927 L 103 200 91.500 200 L 80 200 80 206 M 148.775 201.559 C 143.133 204.621, 142.266 211.419, 146.923 216.077 C 149.311 218.465, 150.693 219, 154.469 219 C 160.439 219, 164 215.817, 164 210.480 C 164 205.824, 162.646 203.386, 159.020 201.510 C 155.388 199.632, 152.299 199.647, 148.775 201.559 M 255 206 C 255 211.333, 255.222 212, 257 212 C 258.944 212, 259 212.667, 259 236 C 259 259.333, 258.944 260, 257 260 C 255.205 260, 255 260.667, 255 266.500 L 255 273 270 273 L 285 273 285 266.500 L 285 260 281.403 260 L 277.807 260 278.153 250.603 C 278.431 243.090, 278.882 240.784, 280.405 239.103 C 282.811 236.447, 286.158 236.412, 288.516 239.018 C 290.077 240.743, 290.409 243.358, 290.803 257.018 L 291.264 273 303.132 273 L 315 273 315 266.500 C 315 260.824, 314.764 260, 313.135 260 C 311.441 260, 311.226 258.865, 310.794 247.644 C 310.230 233.008, 308.176 227.260, 302.555 224.593 C 296.132 221.545, 287.159 222.940, 280.750 227.982 L 278 230.145 278 215.073 L 278 200 266.500 200 L 255 200 255 206 M 374 206 C 374 211.333, 374.222 212, 376 212 C 377.944 212, 378 212.667, 378 236 C 378 259.333, 377.944 260, 376 260 C 374.205 260, 374 260.667, 374 266.500 L 374 273 384.640 273 C 393.003 273, 395.517 272.675, 396.390 271.481 C 397.371 270.140, 397.972 270.208, 401.501 272.054 C 404.622 273.687, 406.723 274.045, 411.072 273.684 C 424.450 272.574, 431.973 263.705, 432.109 248.884 C 432.207 238.206, 427.854 230.007, 419.943 225.971 C 414.746 223.320, 406.210 223.342, 400.960 226.020 L 397 228.041 397 214.020 L 397 200 385.500 200 L 374 200 374 206 M 197.421 223.419 C 195.727 224.156, 193.421 226.024, 192.295 227.570 L 190.248 230.380 188.598 227.190 L 186.949 224 177.974 224 L 169 224 169 230.500 C 169 236.333, 169.205 237, 171 237 C 172.884 237, 173 237.667, 173 248.500 C 173 259.333, 172.884 260, 171 260 C 169.205 260, 169 260.667, 169 266.500 L 169 273 182.500 273 L 196 273 196 266.570 C 196 260.662, 195.817 260.113, 193.750 259.820 C 191.623 259.517, 191.519 259.118, 191.843 252.510 C 192.256 244.101, 193.122 242.265, 197.548 240.415 C 204.290 237.598, 204.726 238.022, 204.212 246.893 C 203.814 253.773, 204.076 255.487, 206.257 260.250 C 210.578 269.689, 218.314 274, 230.930 274 C 239.328 274, 247.131 271.809, 251.921 268.105 L 254.342 266.233 250.444 261.751 L 246.545 257.269 242.581 259.335 C 236.785 262.357, 228.950 262.237, 225.583 259.076 C 224.162 257.742, 223 255.842, 223 254.852 C 223 253.210, 224.335 253.028, 238.250 252.776 L 253.500 252.500 253.798 246.252 C 254.186 238.108, 251.671 232.223, 246.068 228.164 C 234.558 219.826, 215.854 222.374, 208.292 233.309 L 205.500 237.346 205.208 229.673 C 204.935 222.500, 204.772 222.003, 202.708 222.039 C 201.494 222.061, 199.114 222.682, 197.421 223.419 M 315 230.500 C 315 236.216, 315.229 237, 316.897 237 C 318.637 237, 318.825 238.017, 319.160 249.250 C 319.610 264.316, 321.181 268.330, 327.962 271.750 C 333.820 274.704, 341.238 274.756, 346 271.875 C 347.925 270.711, 349.860 269.137, 350.300 268.379 C 351.524 266.268, 352.453 266.712, 353.694 270 L 354.826 273 363.913 273 L 373 273 373 266.500 C 373 260.233, 372.910 260, 370.500 260 L 368 260 368 242 L 368 224 355.500 224 L 343 224 343 230.500 L 343 237 346.597 237 L 350.193 237 349.847 246.397 C 349.456 256.996, 347.762 260.348, 343.075 259.797 C 338.839 259.299, 338.031 256.018, 338.015 239.250 L 338 224 326.500 224 L 315 224 315 230.500 M 225.039 238.189 C 223.918 239.392, 223 241.192, 223 242.189 C 223 243.778, 223.931 244, 230.608 244 L 238.217 244 237.554 241.250 C 237.189 239.738, 236.154 237.938, 235.254 237.250 C 232.621 235.239, 227.335 235.725, 225.039 238.189 M 400.007 239.492 C 395.229 244.579, 396.694 258.842, 402.206 260.880 C 407.544 262.855, 411 258.346, 411 249.403 C 411 238.737, 405.432 233.717, 400.007 239.492" stroke="none" fill="#f8f8f8" fill-rule="evenodd"/></svg>